<?xml version="1.0" encoding="utf-8"?>
<!-- Generator: Adobe Illustrator 24.0.1, SVG Export Plug-In . SVG Version: 6.00 Build 0)  -->
<svg version="1.1" id="Réteg_1" xmlns="http://www.w3.org/2000/svg" xmlns:xlink="http://www.w3.org/1999/xlink" x="0px" y="0px"
	 viewBox="0 0 512 512" style="enable-background:new 0 0 512 512;" xml:space="preserve">
<style type="text/css">
	.st0{fill:#FFFFFF;}
	.st1{fill:#212121;}
</style>
<circle class="st0" cx="256" cy="256" r="256"/>
<path class="st1" d="M256,0C114.6,0,0,115.1,0,257c0,113.6,73.3,209.9,175,243.9c12.8,2.4,17.5-5.5,17.5-12.4
	c0-6.1-0.2-22.3-0.3-43.7C121,460.3,106,410.4,106,410.4c-11.6-29.7-28.5-37.6-28.5-37.6c-23.2-15.9,1.8-15.6,1.8-15.6
	c25.7,1.8,39.2,26.5,39.2,26.5c22.8,39.3,59.9,27.9,74.6,21.4c2.3-16.6,8.9-27.9,16.2-34.4c-56.9-6.4-116.6-28.5-116.6-127
	c0-28.1,9.9-51,26.3-69c-2.9-6.5-11.5-32.6,2.2-68c0,0,21.4-6.9,70.4,26.4c20.5-5.7,42.2-8.5,64-8.7c21.8,0.1,43.5,3,64,8.7
	c48.6-33.2,70.1-26.4,70.1-26.4c13.8,35.4,5.1,61.5,2.6,68c16.3,18,26.2,40.9,26.2,69c0,98.7-59.8,120.5-116.8,126.8
	c9,7.7,17.3,23.5,17.3,47.6c0,34.4-0.3,62-0.3,70.4c0,6.7,4.5,14.8,17.6,12.2C438.7,466.8,512,370.4,512,257
	C512,115.1,397.4,0,256,0z"/>
</svg>
