<svg width="512" height="512" xmlns="http://www.w3.org/2000/svg">

 <g>
  <title>background</title>
  <rect fill="none" id="canvas_background" height="402" width="582" y="-1" x="-1"/>
 </g>
 <g>
  <title>Layer 1</title>
  <ellipse ry="243.010803" rx="242.676072" id="svg_12" cy="255.999993" cx="256" stroke-opacity="null" stroke-width="1.5" stroke="#000" fill="#ffffff"/>
  <path id="svg_2" fill="#BCBBBB" d="m257.100006,507.899994c-137.400009,-0.5 -249.200006,-111.399994 -248.700006,-252c0.400001,-138.299995 111.400003,-251.299994 251.800013,-249.699994c134.600006,1.5 246.300018,111.200002 245.399994,252.600019c-0.800018,137.999969 -111,248.499969 -248.5,249.099976zm-0.200012,-481.999994c-125.799988,-0.299999 -227.499994,102.299997 -228.799994,228.299997c-1.300001,131.199997 103.200003,232.699997 226.200003,234.000015c128.099991,1.299988 230.699997,-102.5 231.599991,-229.100037c1,-130.599976 -103.699982,-233.699976 -229,-233.199976z"/>
  <path id="svg_3" fill="#BCBBBB" d="m147.100006,430c0,-46 -0.099991,-92 -0.199997,-138c0,-3.399994 1.300003,-4.299988 4.399994,-4.100006c4.300003,0.200012 8.700012,0.300018 13,0c4.5,-0.399994 5.900009,1 5.900009,5.700012c-0.199997,35.699982 -0.100006,71.299988 -0.100006,107c0,1.199982 0.100006,2.299988 0,3.5c-0.199997,2.699982 1.100006,4 3.800003,3.899994c1,-0.100006 2,0 3,0c55.699997,0 111.300003,-0.100006 167.000015,0.100006c5.099976,0 6.399994,-1.300018 6.299988,-6.399994c-0.200012,-36 0,-72 -0.200012,-108c0,-4.5 1,-6.300018 5.800018,-5.900024c4.299988,0.400024 8.699982,0.400024 13,0c4.299988,-0.399994 5.199982,1.300018 5.199982,5.400024c-0.099976,44 -0.099976,88 -0.099976,132c0,1.599976 0.5,3.399994 -0.800018,4.799988c-75.300018,0 -150.700012,0 -226,0z"/>
  <path id="svg_4" fill="#F38127" d="m197.5,305.100006c31.100006,3 61.5,5.899994 91.799988,8.700012c12.300018,1.199982 24.5,2.299988 36.800018,3.199982c3.199982,0.200012 4.399994,1.100006 3.899994,4.5c-0.899994,7.300018 -1.5,14.600006 -2.100006,21.900024c-0.199982,2.699982 -1.399994,3.099976 -3.899994,2.899994c-24.899994,-2.399994 -49.700012,-4.600006 -74.600006,-6.800018c-17.399994,-1.599976 -34.799988,-3.099976 -52.199997,-4.699982c-6.5,-0.600006 -6.5,-0.5 -5.899994,-7c0.599991,-6.100006 1.399994,-12.200012 1.699997,-18.399994c0.300003,-3.700012 1.5,-5.300018 4.5,-4.300018z"/>
  <path id="svg_5" fill="#F38127" d="m208.899994,244.100006c3.899994,1.100006 8.300003,2.199997 12.599991,3.400009c37.500015,10.099991 75.099991,20.300003 112.699997,30.300003c4.399994,1.199982 5,2.699982 3.700012,6.799988c-2.100006,6.300018 -3.600006,12.800018 -5.200012,19.200012c-0.699982,2.899994 -2.100006,3.600006 -5,2.799988c-32.100006,-8.699982 -64.199982,-17.299988 -96.299988,-26c-9.600006,-2.600006 -19.199997,-5.199982 -28.900009,-7.799988c-2.5,-0.700012 -3.5,-1.5 -2.699997,-4.399994c2.100006,-7 3.800003,-14.100021 5.699997,-21.200012c0.600021,-1.400009 0.500015,-3.500015 3.400009,-3.100006z"/>
  <path id="svg_6" fill="#F38127" d="m392.700012,223.100006c-1.899994,0.5 -2.299988,-1.099991 -2.700012,-3.199997c-6.899994,-39.800003 -13.899994,-79.600006 -20.799988,-119.5c-0.200012,-1.299995 -0.200012,-2.699997 -0.399994,-4c-1.200012,-8.5 -1.200012,-8.5 7.5,-9.900002c5.600006,-0.899994 11.199982,-1.799995 16.699982,-3c2.800018,-0.599998 3.400024,0.400002 3.900024,2.800003c7.299988,42.499992 14.599976,84.900002 22,127.299995c0.599976,3.400009 0.099976,5.100006 -3.800018,5.5c-7.300018,1.099991 -14.5,2.599991 -22.399994,4z"/>
  <path id="svg_7" fill="#F38127" d="m239.300003,176.800003c0.899994,0.399994 2,0.899994 3,1.5c37.099991,21.899994 74.099991,43.800003 111.300003,65.599991c2.600006,1.5 2.600006,2.800003 1.200012,5c-3.700012,6.100006 -7.5,12.200012 -10.899994,18.5c-1.800018,3.300018 -3.5,3 -6.200012,1.399994c-20.700012,-12.299988 -41.5,-24.499985 -62.299988,-36.799988c-16.200012,-9.5 -32.300018,-19.199997 -48.600021,-28.600006c-2.899994,-1.699997 -3.299988,-2.899994 -1.5,-5.699997c3.900009,-6.199997 7.5,-12.599991 11.200012,-18.800003c0.699982,-1.099991 1.199982,-2.299988 2.799988,-2.099991z"/>
  <path id="svg_8" fill="#F38127" d="m307.700012,112.199997c1.700012,0.400002 1.899994,1.700005 2.600006,2.600006c19.399994,28.399994 38.799988,56.899994 58.199982,85.300003c5.100006,7.399994 10,14.899994 15.200012,22.299988c1.5,2.100006 1.5,3.200012 -0.799988,4.700012c-6.100006,4 -12.200012,8.099991 -18.100006,12.399994c-2.600006,1.899994 -4.100006,1.600006 -5.899994,-1.100006c-12.600006,-18.799988 -25.400024,-37.399994 -38.200012,-56.099991c-11.299988,-16.600006 -22.600006,-33.300003 -34.100006,-49.800003c-2.299988,-3.300003 -1.899994,-4.900002 1.399994,-7c5.900024,-3.699997 11.600006,-7.800003 17.400024,-11.699997c0.899963,-0.600006 1.699982,-1.200005 2.299988,-1.600006z"/>
  <path id="svg_9" fill="#F38026" d="m258.299988,384.200012c-21.099991,0 -42.300003,-0.100006 -63.399994,0.100006c-3.699997,0 -5.400009,-0.600006 -5.100006,-4.800018c0.400009,-6.599976 0.199997,-13.299988 0,-20c-0.099991,-3.099976 0.5,-4.399994 4.100006,-4.399994c43.099991,0.100006 86.199982,0.100006 129.299988,0c3.300018,0 3.899994,1.200012 3.800018,4.100006c-0.200012,7 -0.200012,14 0,21c0.099976,3.399994 -1.100006,4.200012 -4.300018,4.100006c-21.399994,-0.200012 -42.899994,-0.200012 -64.399994,-0.100006c0,-0.100006 0,-0.100006 0,0z"/>
  <path id="svg_10" fill="#DABEA8" d="m147.100006,430c75.300003,0 150.699982,0 226,0c-1.399994,1.700012 -3.399994,1 -5.100006,1c-71.799988,0 -143.499985,0 -215.300003,0c-1.899994,0 -4.099991,0.899994 -5.599991,-1z"/>
 </g>
</svg>